<svg xmlns:xlink="http://www.w3.org/1999/xlink"  xmlns="http://www.w3.org/2000/svg" width="44" height="44" viewBox="0 0 44 44" fill="none">
<g clip-path="url(#clip0)">
<path d="M21.2248 21.322C21.2248 23.3706 19.5937 25.0308 17.5811 25.0308C15.5685 25.0308 13.9375 23.3706 13.9375 21.322C13.9375 19.2735 15.5685 17.6133 17.5811 17.6133C19.5922 17.6133 21.2248 19.2735 21.2248 21.322Z" fill="#2052CA"/>
<path d="M31.7389 13.0337C31.7389 15.1006 30.0914 16.7745 28.0609 16.7745C26.0303 16.7745 24.3828 15.099 24.3828 13.0337C24.3828 10.9684 26.0303 9.29297 28.0609 9.29297C30.0914 9.29297 31.7389 10.9669 31.7389 13.0337Z" fill="#2052CA"/>
<path d="M39.3878 15.4059C39.3878 16.6061 38.4316 17.5794 37.2525 17.5794C36.0734 17.5794 35.1172 16.6061 35.1172 15.4059C35.1172 14.2057 36.0734 13.2324 37.2525 13.2324C38.4316 13.2324 39.3878 14.2057 39.3878 15.4059Z" fill="#2052CA"/>
<path d="M38.9186 25.3102C38.9186 27.3786 37.2711 29.054 35.2405 29.054C33.2085 29.054 31.5625 27.377 31.5625 25.3102C31.5625 23.2418 33.21 21.5664 35.2405 21.5664C37.2711 21.5649 38.9186 23.2418 38.9186 25.3102Z" fill="#2052CA"/>
<path d="M29.0006 32.4684C29.0006 34.5368 27.3531 36.2122 25.3226 36.2122C23.2905 36.2122 21.6445 34.5352 21.6445 32.4684C21.6445 30.4 23.292 28.7246 25.3226 28.7246C27.3546 28.7246 29.0006 30.4 29.0006 32.4684Z" fill="#2052CA"/>
<path d="M23.8407 22.1691L31.4122 22.1554V20.4754L23.8422 20.4891C23.4756 17.6013 21.2355 15.3136 18.4029 14.9298V7.2168H16.7509V14.9252C13.9049 15.2938 11.6499 17.5815 11.2758 20.4754L4.04688 20.4891V22.1691L11.2758 22.1554C11.6439 25.0554 13.9019 27.3507 16.7524 27.7193V35.4292H18.4044V27.7147C21.231 27.3309 23.4681 25.0508 23.8407 22.1691ZM17.559 26.6516C14.668 26.6516 12.3232 24.2664 12.3232 21.3223C12.3232 18.3781 14.668 15.9929 17.559 15.9929C20.4499 15.9929 22.7947 18.3781 22.7947 21.3223C22.7947 24.2664 20.4499 26.6516 17.559 26.6516Z" fill="#2052CA"/>
</g>
<defs>
<clipPath id="clip0">
<rect width="35.9611" height="29.568" fill="white" transform="translate(4.04688 7.2168)"/>
</clipPath>
</defs>
</svg>